<svg xmlns="http://www.w3.org/2000/svg" xmlns:bx="https://boxy-svg.com" viewBox="246.7 161.13 77.6 85.8">
  <defs>
    <radialGradient gradientUnits="userSpaceOnUse" cx="-452.097" cy="-230.17" r="146.691" id="gradient-0" gradientTransform="matrix(-0.00288, -1.696739, 0.999998, -0.001696, -223.229444, -997.650854)" spreadMethod="pad">
      <stop offset="0" style="stop-color: rgb(255, 187, 0);"/>
      <stop offset="1" style="stop-color: rgb(255, 255, 255);"/>
    </radialGradient>
    <bx:export>
      <bx:file format="svg" path="logo.svg" normalization="{&quot;removeAnimations&quot;:true,&quot;convertTextsToPaths&quot;:true,&quot;splitCompoundPaths&quot;:true,&quot;embedExternalFonts&quot;:true,&quot;removeBoxySVGMetadata&quot;:true,&quot;removeForeignMetadata&quot;:true,&quot;resetTransformOrigins&quot;:true}" units="%"/>
    </bx:export>
  </defs>
  <g id="object-0" transform="matrix(0.174648, 0, 0, 0.174648, 455.861084, 265.430664)">
    <g transform="translate(-41.545 -119.72)">
      <g transform="matrix(1, 0, 0, 1, -482.155334, 12.035079)">
        <g>
          <g>
            <path style="paint-order: stroke; stroke: rgba(0, 0, 0, 0); --darkreader-inline-stroke: rgba(232, 230, 227, 0);" stroke-width="2" fill-rule="evenodd" d="M -452.252 -479.672 L -450.686 -8.04 C -252.401 -43.978 -242.282 -258.756 -239.413 -318.779 L -240.837 -478.023 L -452.252 -479.672 Z" data-darkreader-inline-stroke=""/>
            <path transform="matrix(-1, 0, 0, -1, 0.000002, 0.000028)" style="paint-order: fill; stroke: rgba(0, 0, 0, 0); transform-box: fill-box; transform-origin: 50% 50% 0px; fill: rgb(0, 135, 76); --darkreader-inline-stroke: rgba(232, 230, 227, 0); --darkreader-inline-fill: #6effbf; fill-rule: nonzero;" stroke-width="2" fill-rule="evenodd" d="M -662.687 -8.228 L -664.147 -479.447 C -465.122 -443.397 -453.536 -228.873 -450.656 -168.664 L -452.085 -8.927 L -662.687 -8.228 Z" data-darkreader-inline-stroke="" data-darkreader-inline-fill=""/>
          </g>
        </g>
        <path style="stroke: rgba(0, 0, 0, 0); --darkreader-inline-stroke: rgba(232, 230, 227, 0); --darkreader-inline-fill: #e8e6e3; fill: url(&quot;#gradient-0&quot;); fill-rule: nonzero; paint-order: fill;" stroke-width="2" fill-rule="evenodd" d="M -598.788 -382.823 L -598.788 -297.559 C -598.788 -4.17 -305.407 -4.17 -305.407 -297.559 L -306.386 -381.896 L -598.788 -382.823 Z" data-darkreader-inline-stroke="" data-darkreader-inline-fill=""/>
      </g>
    </g>
  </g>
  <path class="fa-secondary" d="M 286.08 195.241 C 286.623 195.038 286.897 194.437 286.694 193.897 C 286.492 193.353 285.893 193.079 285.346 193.282 L 274.928 197.189 C 270.846 198.723 268.101 202.557 267.951 206.896 C 267.945 206.934 267.945 206.973 267.945 207.015 C 267.945 208.869 267.238 210.789 266.487 212.293 C 266.065 213.141 265.58 213.978 265.018 214.749 C 264.809 215.03 264.749 215.394 264.868 215.726 C 264.987 216.06 265.261 216.309 265.599 216.392 L 269.781 217.439 C 270.055 217.511 270.348 217.458 270.591 217.308 C 270.833 217.159 271.002 216.911 271.052 216.629 C 271.614 213.833 271.335 211.324 270.918 209.526 C 270.708 208.614 270.428 207.68 270.041 206.818 C 270.224 203.387 272.419 200.368 275.661 199.154 L 286.073 195.246 L 286.08 195.241 Z" style="opacity: 0.4; fill-rule: nonzero; fill: rgb(0, 135, 76); paint-order: fill;"/>
  <path class="fa-primary" d="M 285.713 188.198 C 285.184 188.198 284.662 188.29 284.167 188.466 L 265.841 195.084 C 265.219 195.311 264.809 195.899 264.809 196.562 C 264.809 197.221 265.219 197.805 265.841 198.036 L 270.898 199.859 C 271.996 198.698 273.366 197.774 274.928 197.189 L 285.342 193.282 C 285.883 193.079 286.484 193.353 286.686 193.897 C 286.889 194.437 286.614 195.038 286.073 195.241 L 275.667 199.147 C 274.713 199.506 273.85 200.024 273.099 200.658 L 284.173 204.656 C 284.667 204.83 285.19 204.923 285.719 204.923 C 286.247 204.923 286.772 204.83 287.269 204.656 L 305.586 198.036 C 306.208 197.817 306.62 197.221 306.62 196.562 C 306.62 195.899 306.208 195.311 305.586 195.084 L 287.262 188.466 C 286.765 188.29 286.242 188.198 285.713 188.198 Z M 273.171 212.761 C 273.171 215.068 278.79 217.466 285.713 217.466 C 292.638 217.466 298.256 215.068 298.256 212.761 L 297.258 203.262 L 287.968 206.621 C 287.242 206.882 286.478 207.015 285.713 207.015 C 284.95 207.015 284.18 206.882 283.46 206.621 L 274.171 203.262 L 273.171 212.761 Z" style=""/>
  <path class="fa-secondary" d="M 286.078 195.242 C 286.621 195.039 286.895 194.438 286.692 193.898 C 286.49 193.354 285.891 193.08 285.344 193.283 L 274.926 197.19 C 270.844 198.724 268.099 202.558 267.949 206.897 C 267.943 206.935 267.943 206.974 267.943 207.016 C 267.943 208.039 267.728 209.082 267.409 210.064 C 267.15 210.862 266.822 211.62 266.485 212.294 C 266.063 213.142 265.578 213.979 265.016 214.75 C 264.807 215.031 264.747 215.395 264.866 215.727 C 264.985 216.061 265.259 216.31 265.597 216.393 L 269.779 217.44 C 270.053 217.512 270.346 217.459 270.589 217.309 C 270.831 217.16 271 216.912 271.05 216.63 C 271.612 213.834 271.333 211.325 270.916 209.527 C 270.706 208.615 270.426 207.681 270.039 206.819 C 270.222 203.388 272.417 200.369 275.659 199.155 L 286.071 195.247 L 286.078 195.242 Z" style="opacity: 0.4; fill-rule: nonzero; paint-order: fill; fill: rgb(0, 135, 76);"/>
  <path class="fa-secondary" d="M 286.076 195.241 C 286.619 195.038 286.893 194.437 286.69 193.897 C 286.488 193.353 285.889 193.079 285.342 193.282 L 274.924 197.189 C 270.842 198.723 268.097 202.557 267.947 206.896 C 267.941 206.934 267.941 206.973 267.941 207.015 C 267.941 208.038 267.726 209.081 267.407 210.063 C 267.148 210.861 266.82 211.619 266.483 212.293 C 266.061 213.141 265.576 213.978 265.014 214.749 C 264.805 215.03 264.745 215.394 264.864 215.726 C 264.983 216.06 265.257 216.309 265.595 216.392 L 269.777 217.439 C 270.051 217.511 270.344 217.458 270.587 217.308 C 270.829 217.159 270.998 216.911 271.048 216.629 C 271.61 213.833 271.331 211.324 270.914 209.526 C 270.704 208.614 270.424 207.68 270.037 206.818 C 270.22 203.387 272.415 200.368 275.657 199.154 L 286.069 195.246 L 286.076 195.241 Z" style="opacity: 0.4; fill-rule: nonzero; paint-order: fill; fill: rgb(0, 135, 76);"/>
  <path class="fa-secondary" d="M 286.024 195.294 C 286.567 195.091 286.841 194.49 286.638 193.95 C 286.436 193.406 285.837 193.132 285.29 193.335 L 274.872 197.242 C 270.79 198.776 268.045 202.61 267.895 206.949 C 267.889 206.987 267.889 207.026 267.889 207.068 C 267.889 208.091 267.674 209.134 267.355 210.116 C 267.096 210.914 266.768 211.672 266.431 212.346 C 266.009 213.194 265.524 214.031 264.962 214.802 C 264.753 215.083 264.693 215.447 264.812 215.779 C 264.931 216.113 265.205 216.362 265.543 216.445 L 269.725 217.492 C 269.999 217.564 270.292 217.511 270.535 217.361 C 270.777 217.212 270.946 216.964 270.996 216.682 C 271.558 213.886 271.279 211.377 270.862 209.579 C 270.652 208.667 270.372 207.733 269.985 206.871 C 270.168 203.44 272.363 200.421 275.605 199.207 L 286.017 195.299 L 286.024 195.294 Z" style="opacity: 0.4; fill-rule: nonzero; paint-order: fill; fill: rgb(0, 135, 76);"/>
</svg>